<svg width="180" height="47" viewBox="0 0 180 47" fill="none" xmlns="http://www.w3.org/2000/svg">
<mask id="path-1-inside-1_825_86" fill="white">
<path d="M66.956 43.76C66.604 43.76 66.276 43.688 65.972 43.544C65.676 43.4 65.44 43.192 65.264 42.92C65.088 42.64 65 42.32 65 41.96C65 41.368 65.232 40.896 65.696 40.544C66.168 40.192 66.856 40.016 67.76 40.016H69.212V39.92C69.212 39.392 69.08 39.012 68.816 38.78C68.56 38.548 68.156 38.432 67.604 38.432C67.3 38.432 67.028 38.456 66.788 38.504C66.556 38.552 66.296 38.624 66.008 38.72C65.944 38.736 65.892 38.744 65.852 38.744C65.732 38.744 65.628 38.7 65.54 38.612C65.452 38.524 65.408 38.416 65.408 38.288C65.408 38.072 65.512 37.92 65.72 37.832C66.4 37.544 67.092 37.4 67.796 37.4C68.348 37.4 68.812 37.512 69.188 37.736C69.572 37.96 69.852 38.252 70.028 38.612C70.212 38.964 70.304 39.348 70.304 39.764V43.16C70.304 43.312 70.248 43.44 70.136 43.544C70.032 43.648 69.904 43.7 69.752 43.7C69.6 43.7 69.472 43.648 69.368 43.544C69.264 43.44 69.212 43.312 69.212 43.16V42.848C68.62 43.456 67.868 43.76 66.956 43.76ZM67.364 42.8C67.716 42.8 68.056 42.716 68.384 42.548C68.712 42.372 68.988 42.156 69.212 41.9V40.892H67.904C66.696 40.892 66.092 41.208 66.092 41.84C66.092 42.128 66.188 42.36 66.38 42.536C66.58 42.712 66.908 42.8 67.364 42.8Z"/>
<path d="M74.1143 43.76C73.3143 43.76 72.5863 43.58 71.9303 43.22C71.7943 43.124 71.7263 42.992 71.7263 42.824C71.7263 42.696 71.7703 42.584 71.8583 42.488C71.9463 42.392 72.0583 42.344 72.1943 42.344C72.2663 42.344 72.3383 42.36 72.4103 42.392C72.6663 42.504 72.9223 42.592 73.1783 42.656C73.4343 42.72 73.7223 42.752 74.0423 42.752C74.9303 42.752 75.3743 42.468 75.3743 41.9C75.3743 41.716 75.2703 41.576 75.0623 41.48C74.8623 41.384 74.5303 41.276 74.0663 41.156C73.5943 41.044 73.2023 40.928 72.8903 40.808C72.5863 40.688 72.3223 40.508 72.0983 40.268C71.8823 40.02 71.7743 39.696 71.7743 39.296C71.7743 38.736 71.9743 38.28 72.3743 37.928C72.7823 37.576 73.3623 37.4 74.1143 37.4C74.7303 37.4 75.3103 37.5 75.8543 37.7C75.9663 37.732 76.0503 37.792 76.1063 37.88C76.1703 37.968 76.2023 38.06 76.2023 38.156C76.2023 38.284 76.1543 38.396 76.0583 38.492C75.9703 38.588 75.8583 38.636 75.7223 38.636C75.6823 38.636 75.6303 38.628 75.5663 38.612C75.1023 38.468 74.6463 38.396 74.1983 38.396C73.7663 38.396 73.4263 38.476 73.1783 38.636C72.9383 38.788 72.8183 38.988 72.8183 39.236C72.8183 39.476 72.9303 39.652 73.1543 39.764C73.3783 39.876 73.7263 39.984 74.1983 40.088C74.6703 40.208 75.0543 40.328 75.3503 40.448C75.6463 40.56 75.8983 40.74 76.1063 40.988C76.3223 41.236 76.4303 41.568 76.4303 41.984C76.4303 42.496 76.2263 42.92 75.8183 43.256C75.4183 43.592 74.8503 43.76 74.1143 43.76Z"/>
<path d="M79.8799 43.76C79.0799 43.76 78.3519 43.58 77.6959 43.22C77.5599 43.124 77.4919 42.992 77.4919 42.824C77.4919 42.696 77.5359 42.584 77.6239 42.488C77.7119 42.392 77.8239 42.344 77.9599 42.344C78.0319 42.344 78.1039 42.36 78.1759 42.392C78.4319 42.504 78.6879 42.592 78.9439 42.656C79.1999 42.72 79.4879 42.752 79.8079 42.752C80.6959 42.752 81.1399 42.468 81.1399 41.9C81.1399 41.716 81.0359 41.576 80.8279 41.48C80.6279 41.384 80.2959 41.276 79.8319 41.156C79.3599 41.044 78.9679 40.928 78.6559 40.808C78.3519 40.688 78.0879 40.508 77.8639 40.268C77.6479 40.02 77.5399 39.696 77.5399 39.296C77.5399 38.736 77.7399 38.28 78.1399 37.928C78.5479 37.576 79.1279 37.4 79.8799 37.4C80.4959 37.4 81.0759 37.5 81.6199 37.7C81.7319 37.732 81.8159 37.792 81.8719 37.88C81.9359 37.968 81.9679 38.06 81.9679 38.156C81.9679 38.284 81.9199 38.396 81.8239 38.492C81.7359 38.588 81.6239 38.636 81.4879 38.636C81.4479 38.636 81.3959 38.628 81.3319 38.612C80.8679 38.468 80.4119 38.396 79.9639 38.396C79.5319 38.396 79.1919 38.476 78.9439 38.636C78.7039 38.788 78.5839 38.988 78.5839 39.236C78.5839 39.476 78.6959 39.652 78.9199 39.764C79.1439 39.876 79.4919 39.984 79.9639 40.088C80.4359 40.208 80.8199 40.328 81.1159 40.448C81.4119 40.56 81.6639 40.74 81.8719 40.988C82.0879 41.236 82.1959 41.568 82.1959 41.984C82.1959 42.496 81.9919 42.92 81.5839 43.256C81.1839 43.592 80.6159 43.76 79.8799 43.76Z"/>
<path d="M84.1815 36.272C84.0135 36.272 83.8695 36.212 83.7495 36.092C83.6295 35.972 83.5695 35.828 83.5695 35.66V35.612C83.5695 35.444 83.6295 35.3 83.7495 35.18C83.8695 35.06 84.0135 35 84.1815 35H84.2535C84.4215 35 84.5655 35.06 84.6855 35.18C84.8055 35.3 84.8655 35.444 84.8655 35.612V35.66C84.8655 35.828 84.8055 35.972 84.6855 36.092C84.5655 36.212 84.4215 36.272 84.2535 36.272H84.1815ZM84.2055 43.7C84.0535 43.7 83.9255 43.648 83.8215 43.544C83.7175 43.44 83.6655 43.312 83.6655 43.16V38.012C83.6655 37.86 83.7175 37.732 83.8215 37.628C83.9255 37.516 84.0535 37.46 84.2055 37.46C84.3655 37.46 84.4975 37.512 84.6015 37.616C84.7055 37.72 84.7575 37.852 84.7575 38.012V43.16C84.7575 43.312 84.7015 43.44 84.5895 43.544C84.4855 43.648 84.3575 43.7 84.2055 43.7Z"/>
<path d="M89.5098 46.52C89.0458 46.52 88.5778 46.46 88.1058 46.34C87.6338 46.22 87.2458 46.072 86.9418 45.896C86.7978 45.808 86.7258 45.668 86.7258 45.476C86.7258 45.348 86.7698 45.232 86.8578 45.128C86.9538 45.032 87.0698 44.984 87.2058 44.984C87.2698 44.984 87.3418 45 87.4218 45.032C88.0298 45.336 88.6898 45.488 89.4018 45.488C90.6258 45.488 91.2378 44.836 91.2378 43.532V42.728C90.6698 43.336 89.9858 43.64 89.1858 43.64C88.7138 43.64 88.2538 43.524 87.8058 43.292C87.3658 43.052 87.0018 42.7 86.7138 42.236C86.4258 41.764 86.2818 41.192 86.2818 40.52C86.2818 39.848 86.4258 39.28 86.7138 38.816C87.0018 38.344 87.3658 37.992 87.8058 37.76C88.2538 37.52 88.7138 37.4 89.1858 37.4C89.9858 37.4 90.6698 37.704 91.2378 38.312V38.012C91.2378 37.86 91.2898 37.732 91.3938 37.628C91.4978 37.516 91.6258 37.46 91.7778 37.46C91.9298 37.46 92.0578 37.516 92.1618 37.628C92.2738 37.732 92.3298 37.86 92.3298 38.012V43.376C92.3298 44.384 92.0858 45.16 91.5978 45.704C91.1098 46.248 90.4138 46.52 89.5098 46.52ZM89.4138 42.644C89.7898 42.644 90.1218 42.564 90.4098 42.404C90.6978 42.244 90.9738 42.028 91.2378 41.756V39.284C90.9738 39.012 90.6978 38.796 90.4098 38.636C90.1218 38.476 89.7898 38.396 89.4138 38.396C88.8138 38.396 88.3218 38.58 87.9378 38.948C87.5618 39.308 87.3738 39.832 87.3738 40.52C87.3738 41.208 87.5618 41.736 87.9378 42.104C88.3218 42.464 88.8138 42.644 89.4138 42.644Z"/>
<path d="M94.7641 43.7C94.6121 43.7 94.4841 43.648 94.3801 43.544C94.2761 43.44 94.2241 43.312 94.2241 43.16V38.012C94.2241 37.86 94.2761 37.732 94.3801 37.628C94.4841 37.516 94.6121 37.46 94.7641 37.46C94.9161 37.46 95.0441 37.516 95.1481 37.628C95.2601 37.732 95.3161 37.86 95.3161 38.012V38.504C95.6201 38.168 95.9481 37.9 96.3001 37.7C96.6521 37.5 97.0681 37.4 97.5481 37.4C97.9881 37.4 98.3681 37.504 98.6881 37.712C99.0161 37.92 99.2641 38.204 99.4321 38.564C99.6081 38.924 99.6961 39.32 99.6961 39.752V43.16C99.6961 43.312 99.6401 43.44 99.5281 43.544C99.4241 43.648 99.2961 43.7 99.1441 43.7C98.9921 43.7 98.8641 43.648 98.7601 43.544C98.6561 43.44 98.6041 43.312 98.6041 43.16V39.872C98.6041 38.896 98.1641 38.408 97.2841 38.408C96.8841 38.408 96.5241 38.512 96.2041 38.72C95.8921 38.928 95.5961 39.208 95.3161 39.56V43.16C95.3161 43.312 95.2601 43.44 95.1481 43.544C95.0441 43.648 94.9161 43.7 94.7641 43.7Z"/>
<path d="M102.077 43.7C101.925 43.7 101.797 43.648 101.693 43.544C101.589 43.44 101.537 43.312 101.537 43.16V38.012C101.537 37.86 101.589 37.732 101.693 37.628C101.797 37.516 101.925 37.46 102.077 37.46C102.229 37.46 102.357 37.516 102.461 37.628C102.573 37.732 102.629 37.86 102.629 38.012V38.504C102.853 38.184 103.121 37.92 103.433 37.712C103.753 37.504 104.165 37.4 104.669 37.4C105.117 37.4 105.501 37.52 105.821 37.76C106.141 38 106.369 38.292 106.505 38.636C107.001 37.812 107.737 37.4 108.713 37.4C109.161 37.4 109.533 37.512 109.829 37.736C110.133 37.96 110.357 38.248 110.501 38.6C110.645 38.952 110.717 39.32 110.717 39.704V43.16C110.717 43.312 110.661 43.44 110.549 43.544C110.445 43.648 110.317 43.7 110.165 43.7C110.013 43.7 109.885 43.648 109.781 43.544C109.677 43.44 109.625 43.312 109.625 43.16V39.92C109.625 39.4 109.533 39.02 109.349 38.78C109.165 38.532 108.849 38.408 108.401 38.408C107.993 38.408 107.653 38.516 107.381 38.732C107.117 38.94 106.881 39.216 106.673 39.56V43.16C106.673 43.312 106.617 43.44 106.505 43.544C106.401 43.648 106.273 43.7 106.121 43.7C105.969 43.7 105.841 43.648 105.737 43.544C105.633 43.44 105.581 43.312 105.581 43.16V39.92C105.581 39.4 105.489 39.02 105.305 38.78C105.121 38.532 104.805 38.408 104.357 38.408C103.949 38.408 103.609 38.516 103.337 38.732C103.073 38.94 102.837 39.216 102.629 39.56V43.16C102.629 43.312 102.573 43.44 102.461 43.544C102.357 43.648 102.229 43.7 102.077 43.7Z"/>
<path d="M115.288 43.76C114.312 43.76 113.548 43.484 112.996 42.932C112.452 42.372 112.18 41.588 112.18 40.58C112.18 40.012 112.284 39.488 112.492 39.008C112.7 38.528 113.02 38.14 113.452 37.844C113.884 37.548 114.416 37.4 115.048 37.4C115.64 37.4 116.152 37.54 116.584 37.82C117.016 38.092 117.344 38.46 117.568 38.924C117.792 39.38 117.904 39.88 117.904 40.424C117.904 40.576 117.852 40.704 117.748 40.808C117.652 40.912 117.52 40.964 117.352 40.964H113.284C113.348 41.524 113.556 41.96 113.908 42.272C114.26 42.584 114.752 42.74 115.384 42.74C115.72 42.74 116.012 42.708 116.26 42.644C116.516 42.58 116.764 42.488 117.004 42.368C117.068 42.336 117.14 42.32 117.22 42.32C117.348 42.32 117.46 42.364 117.556 42.452C117.652 42.54 117.7 42.652 117.7 42.788C117.7 42.964 117.596 43.112 117.388 43.232C117.076 43.408 116.768 43.54 116.464 43.628C116.16 43.716 115.768 43.76 115.288 43.76ZM116.824 40.076C116.8 39.684 116.696 39.356 116.512 39.092C116.336 38.828 116.116 38.636 115.852 38.516C115.588 38.388 115.32 38.324 115.048 38.324C114.776 38.324 114.508 38.388 114.244 38.516C113.98 38.636 113.76 38.828 113.584 39.092C113.408 39.356 113.308 39.684 113.284 40.076H116.824Z"/>
<path d="M119.889 43.7C119.737 43.7 119.609 43.648 119.505 43.544C119.401 43.44 119.349 43.312 119.349 43.16V38.012C119.349 37.86 119.401 37.732 119.505 37.628C119.609 37.516 119.737 37.46 119.889 37.46C120.041 37.46 120.169 37.516 120.273 37.628C120.385 37.732 120.441 37.86 120.441 38.012V38.504C120.745 38.168 121.073 37.9 121.425 37.7C121.777 37.5 122.193 37.4 122.673 37.4C123.113 37.4 123.493 37.504 123.813 37.712C124.141 37.92 124.389 38.204 124.557 38.564C124.733 38.924 124.821 39.32 124.821 39.752V43.16C124.821 43.312 124.765 43.44 124.653 43.544C124.549 43.648 124.421 43.7 124.269 43.7C124.117 43.7 123.989 43.648 123.885 43.544C123.781 43.44 123.729 43.312 123.729 43.16V39.872C123.729 38.896 123.289 38.408 122.409 38.408C122.009 38.408 121.649 38.512 121.329 38.72C121.017 38.928 120.721 39.208 120.441 39.56V43.16C120.441 43.312 120.385 43.44 120.273 43.544C120.169 43.648 120.041 43.7 119.889 43.7Z"/>
<path d="M128.633 43.76C127.465 43.76 126.881 43.232 126.881 42.176V38.456H126.029C125.965 38.456 125.909 38.436 125.861 38.396C125.821 38.348 125.801 38.292 125.801 38.228C125.801 38.148 125.837 38.08 125.909 38.024L127.541 36.428C127.613 36.356 127.681 36.32 127.745 36.32C127.809 36.32 127.861 36.344 127.901 36.392C127.949 36.44 127.973 36.496 127.973 36.56V37.52H129.329C129.465 37.52 129.577 37.564 129.665 37.652C129.753 37.74 129.797 37.852 129.797 37.988C129.797 38.116 129.753 38.228 129.665 38.324C129.577 38.412 129.465 38.456 129.329 38.456H127.973V42.08C127.973 42.392 128.045 42.592 128.189 42.68C128.341 42.76 128.529 42.8 128.753 42.8C128.913 42.8 129.073 42.776 129.233 42.728C129.265 42.72 129.297 42.712 129.329 42.704C129.369 42.696 129.417 42.692 129.473 42.692C129.585 42.692 129.685 42.736 129.773 42.824C129.861 42.904 129.905 43.004 129.905 43.124C129.905 43.308 129.813 43.448 129.629 43.544C129.317 43.688 128.985 43.76 128.633 43.76Z"/>
<path d="M132.063 43.7C131.951 43.7 131.851 43.66 131.763 43.58C131.683 43.5 131.643 43.4 131.643 43.28C131.643 43.248 131.739 42.64 131.931 41.456H131.007C130.895 41.456 130.795 41.416 130.707 41.336C130.627 41.248 130.587 41.148 130.587 41.036C130.587 40.924 130.627 40.828 130.707 40.748C130.795 40.66 130.895 40.616 131.007 40.616H132.063L132.351 38.792H131.427C131.315 38.792 131.215 38.752 131.127 38.672C131.047 38.584 131.007 38.484 131.007 38.372C131.007 38.26 131.047 38.164 131.127 38.084C131.215 37.996 131.315 37.952 131.427 37.952H132.483L132.783 36.056C132.799 35.96 132.843 35.88 132.915 35.816C132.995 35.752 133.091 35.72 133.203 35.72C133.331 35.72 133.431 35.76 133.503 35.84C133.583 35.92 133.623 36.02 133.623 36.14C133.623 36.196 133.527 36.8 133.335 37.952H134.859L135.159 36.056C135.175 35.96 135.219 35.88 135.291 35.816C135.371 35.752 135.467 35.72 135.579 35.72C135.707 35.72 135.807 35.76 135.879 35.84C135.959 35.92 135.999 36.02 135.999 36.14C135.999 36.196 135.903 36.8 135.711 37.952H136.635C136.747 37.952 136.843 37.996 136.923 38.084C137.011 38.164 137.055 38.26 137.055 38.372C137.055 38.484 137.011 38.584 136.923 38.672C136.843 38.752 136.747 38.792 136.635 38.792H135.579L135.291 40.616H136.215C136.327 40.616 136.423 40.66 136.503 40.748C136.591 40.828 136.635 40.924 136.635 41.036C136.635 41.148 136.591 41.248 136.503 41.336C136.423 41.416 136.327 41.456 136.215 41.456H135.159L134.859 43.352C134.843 43.448 134.795 43.532 134.715 43.604C134.635 43.668 134.543 43.7 134.439 43.7C134.327 43.7 134.227 43.66 134.139 43.58C134.059 43.5 134.019 43.4 134.019 43.28C134.019 43.248 134.115 42.64 134.307 41.456H132.783L132.483 43.352C132.467 43.448 132.419 43.532 132.339 43.604C132.259 43.668 132.167 43.7 132.063 43.7ZM132.915 40.616H134.439L134.727 38.792H133.203L132.915 40.616Z"/>
<path d="M139.627 43.64C139.483 43.64 139.363 43.592 139.267 43.496C139.171 43.4 139.123 43.28 139.123 43.136C139.123 42.992 139.171 42.872 139.267 42.776C139.363 42.672 139.483 42.62 139.627 42.62H141.055V36.536L139.831 37.136C139.719 37.184 139.627 37.208 139.555 37.208C139.403 37.208 139.279 37.16 139.183 37.064C139.087 36.968 139.039 36.844 139.039 36.692C139.039 36.468 139.143 36.304 139.351 36.2L140.983 35.348C141.095 35.292 141.207 35.264 141.319 35.264H141.571C141.731 35.264 141.867 35.32 141.979 35.432C142.091 35.544 142.147 35.68 142.147 35.84V42.62H143.335C143.479 42.62 143.599 42.672 143.695 42.776C143.799 42.872 143.851 42.992 143.851 43.136C143.851 43.28 143.799 43.4 143.695 43.496C143.599 43.592 143.479 43.64 143.335 43.64H139.627Z"/>
<path d="M148.806 43.76C147.75 43.76 146.942 43.372 146.382 42.596C145.83 41.82 145.554 40.772 145.554 39.452C145.554 38.132 145.83 37.084 146.382 36.308C146.942 35.532 147.75 35.144 148.806 35.144C149.854 35.144 150.658 35.532 151.218 36.308C151.778 37.084 152.058 38.132 152.058 39.452C152.058 40.772 151.778 41.82 151.218 42.596C150.658 43.372 149.854 43.76 148.806 43.76ZM148.806 42.752C149.502 42.752 150.034 42.46 150.402 41.876C150.778 41.292 150.966 40.484 150.966 39.452C150.966 38.428 150.778 37.624 150.402 37.04C150.034 36.456 149.502 36.164 148.806 36.164C148.11 36.164 147.574 36.456 147.198 37.04C146.83 37.624 146.646 38.428 146.646 39.452C146.646 40.484 146.83 41.292 147.198 41.876C147.574 42.46 148.11 42.752 148.806 42.752Z"/>
<path d="M154.697 43.64C154.553 43.64 154.433 43.592 154.337 43.496C154.241 43.4 154.193 43.28 154.193 43.136C154.193 42.992 154.241 42.872 154.337 42.776C154.433 42.672 154.553 42.62 154.697 42.62H156.125V36.536L154.901 37.136C154.789 37.184 154.697 37.208 154.625 37.208C154.473 37.208 154.349 37.16 154.253 37.064C154.157 36.968 154.109 36.844 154.109 36.692C154.109 36.468 154.213 36.304 154.421 36.2L156.053 35.348C156.165 35.292 156.277 35.264 156.389 35.264H156.641C156.801 35.264 156.937 35.32 157.049 35.432C157.161 35.544 157.217 35.68 157.217 35.84V42.62H158.405C158.549 42.62 158.669 42.672 158.765 42.776C158.869 42.872 158.921 42.992 158.921 43.136C158.921 43.28 158.869 43.4 158.765 43.496C158.669 43.592 158.549 43.64 158.405 43.64H154.697Z"/>
</mask>
<path d="M66.956 43.76C66.604 43.76 66.276 43.688 65.972 43.544C65.676 43.4 65.44 43.192 65.264 42.92C65.088 42.64 65 42.32 65 41.96C65 41.368 65.232 40.896 65.696 40.544C66.168 40.192 66.856 40.016 67.76 40.016H69.212V39.92C69.212 39.392 69.08 39.012 68.816 38.78C68.56 38.548 68.156 38.432 67.604 38.432C67.3 38.432 67.028 38.456 66.788 38.504C66.556 38.552 66.296 38.624 66.008 38.72C65.944 38.736 65.892 38.744 65.852 38.744C65.732 38.744 65.628 38.7 65.54 38.612C65.452 38.524 65.408 38.416 65.408 38.288C65.408 38.072 65.512 37.92 65.72 37.832C66.4 37.544 67.092 37.4 67.796 37.4C68.348 37.4 68.812 37.512 69.188 37.736C69.572 37.96 69.852 38.252 70.028 38.612C70.212 38.964 70.304 39.348 70.304 39.764V43.16C70.304 43.312 70.248 43.44 70.136 43.544C70.032 43.648 69.904 43.7 69.752 43.7C69.6 43.7 69.472 43.648 69.368 43.544C69.264 43.44 69.212 43.312 69.212 43.16V42.848C68.62 43.456 67.868 43.76 66.956 43.76ZM67.364 42.8C67.716 42.8 68.056 42.716 68.384 42.548C68.712 42.372 68.988 42.156 69.212 41.9V40.892H67.904C66.696 40.892 66.092 41.208 66.092 41.84C66.092 42.128 66.188 42.36 66.38 42.536C66.58 42.712 66.908 42.8 67.364 42.8Z" fill="white"/>
<path d="M74.1143 43.76C73.3143 43.76 72.5863 43.58 71.9303 43.22C71.7943 43.124 71.7263 42.992 71.7263 42.824C71.7263 42.696 71.7703 42.584 71.8583 42.488C71.9463 42.392 72.0583 42.344 72.1943 42.344C72.2663 42.344 72.3383 42.36 72.4103 42.392C72.6663 42.504 72.9223 42.592 73.1783 42.656C73.4343 42.72 73.7223 42.752 74.0423 42.752C74.9303 42.752 75.3743 42.468 75.3743 41.9C75.3743 41.716 75.2703 41.576 75.0623 41.48C74.8623 41.384 74.5303 41.276 74.0663 41.156C73.5943 41.044 73.2023 40.928 72.8903 40.808C72.5863 40.688 72.3223 40.508 72.0983 40.268C71.8823 40.02 71.7743 39.696 71.7743 39.296C71.7743 38.736 71.9743 38.28 72.3743 37.928C72.7823 37.576 73.3623 37.4 74.1143 37.4C74.7303 37.4 75.3103 37.5 75.8543 37.7C75.9663 37.732 76.0503 37.792 76.1063 37.88C76.1703 37.968 76.2023 38.06 76.2023 38.156C76.2023 38.284 76.1543 38.396 76.0583 38.492C75.9703 38.588 75.8583 38.636 75.7223 38.636C75.6823 38.636 75.6303 38.628 75.5663 38.612C75.1023 38.468 74.6463 38.396 74.1983 38.396C73.7663 38.396 73.4263 38.476 73.1783 38.636C72.9383 38.788 72.8183 38.988 72.8183 39.236C72.8183 39.476 72.9303 39.652 73.1543 39.764C73.3783 39.876 73.7263 39.984 74.1983 40.088C74.6703 40.208 75.0543 40.328 75.3503 40.448C75.6463 40.56 75.8983 40.74 76.1063 40.988C76.3223 41.236 76.4303 41.568 76.4303 41.984C76.4303 42.496 76.2263 42.92 75.8183 43.256C75.4183 43.592 74.8503 43.76 74.1143 43.76Z" fill="white"/>
<path d="M79.8799 43.76C79.0799 43.76 78.3519 43.58 77.6959 43.22C77.5599 43.124 77.4919 42.992 77.4919 42.824C77.4919 42.696 77.5359 42.584 77.6239 42.488C77.7119 42.392 77.8239 42.344 77.9599 42.344C78.0319 42.344 78.1039 42.36 78.1759 42.392C78.4319 42.504 78.6879 42.592 78.9439 42.656C79.1999 42.72 79.4879 42.752 79.8079 42.752C80.6959 42.752 81.1399 42.468 81.1399 41.9C81.1399 41.716 81.0359 41.576 80.8279 41.48C80.6279 41.384 80.2959 41.276 79.8319 41.156C79.3599 41.044 78.9679 40.928 78.6559 40.808C78.3519 40.688 78.0879 40.508 77.8639 40.268C77.6479 40.02 77.5399 39.696 77.5399 39.296C77.5399 38.736 77.7399 38.28 78.1399 37.928C78.5479 37.576 79.1279 37.4 79.8799 37.4C80.4959 37.4 81.0759 37.5 81.6199 37.7C81.7319 37.732 81.8159 37.792 81.8719 37.88C81.9359 37.968 81.9679 38.06 81.9679 38.156C81.9679 38.284 81.9199 38.396 81.8239 38.492C81.7359 38.588 81.6239 38.636 81.4879 38.636C81.4479 38.636 81.3959 38.628 81.3319 38.612C80.8679 38.468 80.4119 38.396 79.9639 38.396C79.5319 38.396 79.1919 38.476 78.9439 38.636C78.7039 38.788 78.5839 38.988 78.5839 39.236C78.5839 39.476 78.6959 39.652 78.9199 39.764C79.1439 39.876 79.4919 39.984 79.9639 40.088C80.4359 40.208 80.8199 40.328 81.1159 40.448C81.4119 40.56 81.6639 40.74 81.8719 40.988C82.0879 41.236 82.1959 41.568 82.1959 41.984C82.1959 42.496 81.9919 42.92 81.5839 43.256C81.1839 43.592 80.6159 43.76 79.8799 43.76Z" fill="white"/>
<path d="M84.1815 36.272C84.0135 36.272 83.8695 36.212 83.7495 36.092C83.6295 35.972 83.5695 35.828 83.5695 35.66V35.612C83.5695 35.444 83.6295 35.3 83.7495 35.18C83.8695 35.06 84.0135 35 84.1815 35H84.2535C84.4215 35 84.5655 35.06 84.6855 35.18C84.8055 35.3 84.8655 35.444 84.8655 35.612V35.66C84.8655 35.828 84.8055 35.972 84.6855 36.092C84.5655 36.212 84.4215 36.272 84.2535 36.272H84.1815ZM84.2055 43.7C84.0535 43.7 83.9255 43.648 83.8215 43.544C83.7175 43.44 83.6655 43.312 83.6655 43.16V38.012C83.6655 37.86 83.7175 37.732 83.8215 37.628C83.9255 37.516 84.0535 37.46 84.2055 37.46C84.3655 37.46 84.4975 37.512 84.6015 37.616C84.7055 37.72 84.7575 37.852 84.7575 38.012V43.16C84.7575 43.312 84.7015 43.44 84.5895 43.544C84.4855 43.648 84.3575 43.7 84.2055 43.7Z" fill="white"/>
<path d="M89.5098 46.52C89.0458 46.52 88.5778 46.46 88.1058 46.34C87.6338 46.22 87.2458 46.072 86.9418 45.896C86.7978 45.808 86.7258 45.668 86.7258 45.476C86.7258 45.348 86.7698 45.232 86.8578 45.128C86.9538 45.032 87.0698 44.984 87.2058 44.984C87.2698 44.984 87.3418 45 87.4218 45.032C88.0298 45.336 88.6898 45.488 89.4018 45.488C90.6258 45.488 91.2378 44.836 91.2378 43.532V42.728C90.6698 43.336 89.9858 43.64 89.1858 43.64C88.7138 43.64 88.2538 43.524 87.8058 43.292C87.3658 43.052 87.0018 42.7 86.7138 42.236C86.4258 41.764 86.2818 41.192 86.2818 40.52C86.2818 39.848 86.4258 39.28 86.7138 38.816C87.0018 38.344 87.3658 37.992 87.8058 37.76C88.2538 37.52 88.7138 37.4 89.1858 37.4C89.9858 37.4 90.6698 37.704 91.2378 38.312V38.012C91.2378 37.86 91.2898 37.732 91.3938 37.628C91.4978 37.516 91.6258 37.46 91.7778 37.46C91.9298 37.46 92.0578 37.516 92.1618 37.628C92.2738 37.732 92.3298 37.86 92.3298 38.012V43.376C92.3298 44.384 92.0858 45.16 91.5978 45.704C91.1098 46.248 90.4138 46.52 89.5098 46.52ZM89.4138 42.644C89.7898 42.644 90.1218 42.564 90.4098 42.404C90.6978 42.244 90.9738 42.028 91.2378 41.756V39.284C90.9738 39.012 90.6978 38.796 90.4098 38.636C90.1218 38.476 89.7898 38.396 89.4138 38.396C88.8138 38.396 88.3218 38.58 87.9378 38.948C87.5618 39.308 87.3738 39.832 87.3738 40.52C87.3738 41.208 87.5618 41.736 87.9378 42.104C88.3218 42.464 88.8138 42.644 89.4138 42.644Z" fill="white"/>
<path d="M94.7641 43.7C94.6121 43.7 94.4841 43.648 94.3801 43.544C94.2761 43.44 94.2241 43.312 94.2241 43.16V38.012C94.2241 37.86 94.2761 37.732 94.3801 37.628C94.4841 37.516 94.6121 37.46 94.7641 37.46C94.9161 37.46 95.0441 37.516 95.1481 37.628C95.2601 37.732 95.3161 37.86 95.3161 38.012V38.504C95.6201 38.168 95.9481 37.9 96.3001 37.7C96.6521 37.5 97.0681 37.4 97.5481 37.4C97.9881 37.4 98.3681 37.504 98.6881 37.712C99.0161 37.92 99.2641 38.204 99.4321 38.564C99.6081 38.924 99.6961 39.32 99.6961 39.752V43.16C99.6961 43.312 99.6401 43.44 99.5281 43.544C99.4241 43.648 99.2961 43.7 99.1441 43.7C98.9921 43.7 98.8641 43.648 98.7601 43.544C98.6561 43.44 98.6041 43.312 98.6041 43.16V39.872C98.6041 38.896 98.1641 38.408 97.2841 38.408C96.8841 38.408 96.5241 38.512 96.2041 38.72C95.8921 38.928 95.5961 39.208 95.3161 39.56V43.16C95.3161 43.312 95.2601 43.44 95.1481 43.544C95.0441 43.648 94.9161 43.7 94.7641 43.7Z" fill="white"/>
<path d="M102.077 43.7C101.925 43.7 101.797 43.648 101.693 43.544C101.589 43.44 101.537 43.312 101.537 43.16V38.012C101.537 37.86 101.589 37.732 101.693 37.628C101.797 37.516 101.925 37.46 102.077 37.46C102.229 37.46 102.357 37.516 102.461 37.628C102.573 37.732 102.629 37.86 102.629 38.012V38.504C102.853 38.184 103.121 37.92 103.433 37.712C103.753 37.504 104.165 37.4 104.669 37.4C105.117 37.4 105.501 37.52 105.821 37.76C106.141 38 106.369 38.292 106.505 38.636C107.001 37.812 107.737 37.4 108.713 37.4C109.161 37.4 109.533 37.512 109.829 37.736C110.133 37.96 110.357 38.248 110.501 38.6C110.645 38.952 110.717 39.32 110.717 39.704V43.16C110.717 43.312 110.661 43.44 110.549 43.544C110.445 43.648 110.317 43.7 110.165 43.7C110.013 43.7 109.885 43.648 109.781 43.544C109.677 43.44 109.625 43.312 109.625 43.16V39.92C109.625 39.4 109.533 39.02 109.349 38.78C109.165 38.532 108.849 38.408 108.401 38.408C107.993 38.408 107.653 38.516 107.381 38.732C107.117 38.94 106.881 39.216 106.673 39.56V43.16C106.673 43.312 106.617 43.44 106.505 43.544C106.401 43.648 106.273 43.7 106.121 43.7C105.969 43.7 105.841 43.648 105.737 43.544C105.633 43.44 105.581 43.312 105.581 43.16V39.92C105.581 39.4 105.489 39.02 105.305 38.78C105.121 38.532 104.805 38.408 104.357 38.408C103.949 38.408 103.609 38.516 103.337 38.732C103.073 38.94 102.837 39.216 102.629 39.56V43.16C102.629 43.312 102.573 43.44 102.461 43.544C102.357 43.648 102.229 43.7 102.077 43.7Z" fill="white"/>
<path d="M115.288 43.76C114.312 43.76 113.548 43.484 112.996 42.932C112.452 42.372 112.18 41.588 112.18 40.58C112.18 40.012 112.284 39.488 112.492 39.008C112.7 38.528 113.02 38.14 113.452 37.844C113.884 37.548 114.416 37.4 115.048 37.4C115.64 37.4 116.152 37.54 116.584 37.82C117.016 38.092 117.344 38.46 117.568 38.924C117.792 39.38 117.904 39.88 117.904 40.424C117.904 40.576 117.852 40.704 117.748 40.808C117.652 40.912 117.52 40.964 117.352 40.964H113.284C113.348 41.524 113.556 41.96 113.908 42.272C114.26 42.584 114.752 42.74 115.384 42.74C115.72 42.74 116.012 42.708 116.26 42.644C116.516 42.58 116.764 42.488 117.004 42.368C117.068 42.336 117.14 42.32 117.22 42.32C117.348 42.32 117.46 42.364 117.556 42.452C117.652 42.54 117.7 42.652 117.7 42.788C117.7 42.964 117.596 43.112 117.388 43.232C117.076 43.408 116.768 43.54 116.464 43.628C116.16 43.716 115.768 43.76 115.288 43.76ZM116.824 40.076C116.8 39.684 116.696 39.356 116.512 39.092C116.336 38.828 116.116 38.636 115.852 38.516C115.588 38.388 115.32 38.324 115.048 38.324C114.776 38.324 114.508 38.388 114.244 38.516C113.98 38.636 113.76 38.828 113.584 39.092C113.408 39.356 113.308 39.684 113.284 40.076H116.824Z" fill="white"/>
<path d="M119.889 43.7C119.737 43.7 119.609 43.648 119.505 43.544C119.401 43.44 119.349 43.312 119.349 43.16V38.012C119.349 37.86 119.401 37.732 119.505 37.628C119.609 37.516 119.737 37.46 119.889 37.46C120.041 37.46 120.169 37.516 120.273 37.628C120.385 37.732 120.441 37.86 120.441 38.012V38.504C120.745 38.168 121.073 37.9 121.425 37.7C121.777 37.5 122.193 37.4 122.673 37.4C123.113 37.4 123.493 37.504 123.813 37.712C124.141 37.92 124.389 38.204 124.557 38.564C124.733 38.924 124.821 39.32 124.821 39.752V43.16C124.821 43.312 124.765 43.44 124.653 43.544C124.549 43.648 124.421 43.7 124.269 43.7C124.117 43.7 123.989 43.648 123.885 43.544C123.781 43.44 123.729 43.312 123.729 43.16V39.872C123.729 38.896 123.289 38.408 122.409 38.408C122.009 38.408 121.649 38.512 121.329 38.72C121.017 38.928 120.721 39.208 120.441 39.56V43.16C120.441 43.312 120.385 43.44 120.273 43.544C120.169 43.648 120.041 43.7 119.889 43.7Z" fill="white"/>
<path d="M128.633 43.76C127.465 43.76 126.881 43.232 126.881 42.176V38.456H126.029C125.965 38.456 125.909 38.436 125.861 38.396C125.821 38.348 125.801 38.292 125.801 38.228C125.801 38.148 125.837 38.08 125.909 38.024L127.541 36.428C127.613 36.356 127.681 36.32 127.745 36.32C127.809 36.32 127.861 36.344 127.901 36.392C127.949 36.44 127.973 36.496 127.973 36.56V37.52H129.329C129.465 37.52 129.577 37.564 129.665 37.652C129.753 37.74 129.797 37.852 129.797 37.988C129.797 38.116 129.753 38.228 129.665 38.324C129.577 38.412 129.465 38.456 129.329 38.456H127.973V42.08C127.973 42.392 128.045 42.592 128.189 42.68C128.341 42.76 128.529 42.8 128.753 42.8C128.913 42.8 129.073 42.776 129.233 42.728C129.265 42.72 129.297 42.712 129.329 42.704C129.369 42.696 129.417 42.692 129.473 42.692C129.585 42.692 129.685 42.736 129.773 42.824C129.861 42.904 129.905 43.004 129.905 43.124C129.905 43.308 129.813 43.448 129.629 43.544C129.317 43.688 128.985 43.76 128.633 43.76Z" fill="white"/>
<path d="M132.063 43.7C131.951 43.7 131.851 43.66 131.763 43.58C131.683 43.5 131.643 43.4 131.643 43.28C131.643 43.248 131.739 42.64 131.931 41.456H131.007C130.895 41.456 130.795 41.416 130.707 41.336C130.627 41.248 130.587 41.148 130.587 41.036C130.587 40.924 130.627 40.828 130.707 40.748C130.795 40.66 130.895 40.616 131.007 40.616H132.063L132.351 38.792H131.427C131.315 38.792 131.215 38.752 131.127 38.672C131.047 38.584 131.007 38.484 131.007 38.372C131.007 38.26 131.047 38.164 131.127 38.084C131.215 37.996 131.315 37.952 131.427 37.952H132.483L132.783 36.056C132.799 35.96 132.843 35.88 132.915 35.816C132.995 35.752 133.091 35.72 133.203 35.72C133.331 35.72 133.431 35.76 133.503 35.84C133.583 35.92 133.623 36.02 133.623 36.14C133.623 36.196 133.527 36.8 133.335 37.952H134.859L135.159 36.056C135.175 35.96 135.219 35.88 135.291 35.816C135.371 35.752 135.467 35.72 135.579 35.72C135.707 35.72 135.807 35.76 135.879 35.84C135.959 35.92 135.999 36.02 135.999 36.14C135.999 36.196 135.903 36.8 135.711 37.952H136.635C136.747 37.952 136.843 37.996 136.923 38.084C137.011 38.164 137.055 38.26 137.055 38.372C137.055 38.484 137.011 38.584 136.923 38.672C136.843 38.752 136.747 38.792 136.635 38.792H135.579L135.291 40.616H136.215C136.327 40.616 136.423 40.66 136.503 40.748C136.591 40.828 136.635 40.924 136.635 41.036C136.635 41.148 136.591 41.248 136.503 41.336C136.423 41.416 136.327 41.456 136.215 41.456H135.159L134.859 43.352C134.843 43.448 134.795 43.532 134.715 43.604C134.635 43.668 134.543 43.7 134.439 43.7C134.327 43.7 134.227 43.66 134.139 43.58C134.059 43.5 134.019 43.4 134.019 43.28C134.019 43.248 134.115 42.64 134.307 41.456H132.783L132.483 43.352C132.467 43.448 132.419 43.532 132.339 43.604C132.259 43.668 132.167 43.7 132.063 43.7ZM132.915 40.616H134.439L134.727 38.792H133.203L132.915 40.616Z" fill="white"/>
<path d="M139.627 43.64C139.483 43.64 139.363 43.592 139.267 43.496C139.171 43.4 139.123 43.28 139.123 43.136C139.123 42.992 139.171 42.872 139.267 42.776C139.363 42.672 139.483 42.62 139.627 42.62H141.055V36.536L139.831 37.136C139.719 37.184 139.627 37.208 139.555 37.208C139.403 37.208 139.279 37.16 139.183 37.064C139.087 36.968 139.039 36.844 139.039 36.692C139.039 36.468 139.143 36.304 139.351 36.2L140.983 35.348C141.095 35.292 141.207 35.264 141.319 35.264H141.571C141.731 35.264 141.867 35.32 141.979 35.432C142.091 35.544 142.147 35.68 142.147 35.84V42.62H143.335C143.479 42.62 143.599 42.672 143.695 42.776C143.799 42.872 143.851 42.992 143.851 43.136C143.851 43.28 143.799 43.4 143.695 43.496C143.599 43.592 143.479 43.64 143.335 43.64H139.627Z" fill="white"/>
<path d="M148.806 43.76C147.75 43.76 146.942 43.372 146.382 42.596C145.83 41.82 145.554 40.772 145.554 39.452C145.554 38.132 145.83 37.084 146.382 36.308C146.942 35.532 147.75 35.144 148.806 35.144C149.854 35.144 150.658 35.532 151.218 36.308C151.778 37.084 152.058 38.132 152.058 39.452C152.058 40.772 151.778 41.82 151.218 42.596C150.658 43.372 149.854 43.76 148.806 43.76ZM148.806 42.752C149.502 42.752 150.034 42.46 150.402 41.876C150.778 41.292 150.966 40.484 150.966 39.452C150.966 38.428 150.778 37.624 150.402 37.04C150.034 36.456 149.502 36.164 148.806 36.164C148.11 36.164 147.574 36.456 147.198 37.04C146.83 37.624 146.646 38.428 146.646 39.452C146.646 40.484 146.83 41.292 147.198 41.876C147.574 42.46 148.11 42.752 148.806 42.752Z" fill="white"/>
<path d="M154.697 43.64C154.553 43.64 154.433 43.592 154.337 43.496C154.241 43.4 154.193 43.28 154.193 43.136C154.193 42.992 154.241 42.872 154.337 42.776C154.433 42.672 154.553 42.62 154.697 42.62H156.125V36.536L154.901 37.136C154.789 37.184 154.697 37.208 154.625 37.208C154.473 37.208 154.349 37.16 154.253 37.064C154.157 36.968 154.109 36.844 154.109 36.692C154.109 36.468 154.213 36.304 154.421 36.2L156.053 35.348C156.165 35.292 156.277 35.264 156.389 35.264H156.641C156.801 35.264 156.937 35.32 157.049 35.432C157.161 35.544 157.217 35.68 157.217 35.84V42.62H158.405C158.549 42.62 158.669 42.672 158.765 42.776C158.869 42.872 158.921 42.992 158.921 43.136C158.921 43.28 158.869 43.4 158.765 43.496C158.669 43.592 158.549 43.64 158.405 43.64H154.697Z" fill="white"/>
<path d="M66.956 43.76C66.604 43.76 66.276 43.688 65.972 43.544C65.676 43.4 65.44 43.192 65.264 42.92C65.088 42.64 65 42.32 65 41.96C65 41.368 65.232 40.896 65.696 40.544C66.168 40.192 66.856 40.016 67.76 40.016H69.212V39.92C69.212 39.392 69.08 39.012 68.816 38.78C68.56 38.548 68.156 38.432 67.604 38.432C67.3 38.432 67.028 38.456 66.788 38.504C66.556 38.552 66.296 38.624 66.008 38.72C65.944 38.736 65.892 38.744 65.852 38.744C65.732 38.744 65.628 38.7 65.54 38.612C65.452 38.524 65.408 38.416 65.408 38.288C65.408 38.072 65.512 37.92 65.72 37.832C66.4 37.544 67.092 37.4 67.796 37.4C68.348 37.4 68.812 37.512 69.188 37.736C69.572 37.96 69.852 38.252 70.028 38.612C70.212 38.964 70.304 39.348 70.304 39.764V43.16C70.304 43.312 70.248 43.44 70.136 43.544C70.032 43.648 69.904 43.7 69.752 43.7C69.6 43.7 69.472 43.648 69.368 43.544C69.264 43.44 69.212 43.312 69.212 43.16V42.848C68.62 43.456 67.868 43.76 66.956 43.76ZM67.364 42.8C67.716 42.8 68.056 42.716 68.384 42.548C68.712 42.372 68.988 42.156 69.212 41.9V40.892H67.904C66.696 40.892 66.092 41.208 66.092 41.84C66.092 42.128 66.188 42.36 66.38 42.536C66.58 42.712 66.908 42.8 67.364 42.8Z" stroke="white" strokeWidth="4" mask="url(#path-1-inside-1_825_86)"/>
<path d="M74.1143 43.76C73.3143 43.76 72.5863 43.58 71.9303 43.22C71.7943 43.124 71.7263 42.992 71.7263 42.824C71.7263 42.696 71.7703 42.584 71.8583 42.488C71.9463 42.392 72.0583 42.344 72.1943 42.344C72.2663 42.344 72.3383 42.36 72.4103 42.392C72.6663 42.504 72.9223 42.592 73.1783 42.656C73.4343 42.72 73.7223 42.752 74.0423 42.752C74.9303 42.752 75.3743 42.468 75.3743 41.9C75.3743 41.716 75.2703 41.576 75.0623 41.48C74.8623 41.384 74.5303 41.276 74.0663 41.156C73.5943 41.044 73.2023 40.928 72.8903 40.808C72.5863 40.688 72.3223 40.508 72.0983 40.268C71.8823 40.02 71.7743 39.696 71.7743 39.296C71.7743 38.736 71.9743 38.28 72.3743 37.928C72.7823 37.576 73.3623 37.4 74.1143 37.4C74.7303 37.4 75.3103 37.5 75.8543 37.7C75.9663 37.732 76.0503 37.792 76.1063 37.88C76.1703 37.968 76.2023 38.06 76.2023 38.156C76.2023 38.284 76.1543 38.396 76.0583 38.492C75.9703 38.588 75.8583 38.636 75.7223 38.636C75.6823 38.636 75.6303 38.628 75.5663 38.612C75.1023 38.468 74.6463 38.396 74.1983 38.396C73.7663 38.396 73.4263 38.476 73.1783 38.636C72.9383 38.788 72.8183 38.988 72.8183 39.236C72.8183 39.476 72.9303 39.652 73.1543 39.764C73.3783 39.876 73.7263 39.984 74.1983 40.088C74.6703 40.208 75.0543 40.328 75.3503 40.448C75.6463 40.56 75.8983 40.74 76.1063 40.988C76.3223 41.236 76.4303 41.568 76.4303 41.984C76.4303 42.496 76.2263 42.92 75.8183 43.256C75.4183 43.592 74.8503 43.76 74.1143 43.76Z" stroke="white" strokeWidth="4" mask="url(#path-1-inside-1_825_86)"/>
<path d="M79.8799 43.76C79.0799 43.76 78.3519 43.58 77.6959 43.22C77.5599 43.124 77.4919 42.992 77.4919 42.824C77.4919 42.696 77.5359 42.584 77.6239 42.488C77.7119 42.392 77.8239 42.344 77.9599 42.344C78.0319 42.344 78.1039 42.36 78.1759 42.392C78.4319 42.504 78.6879 42.592 78.9439 42.656C79.1999 42.72 79.4879 42.752 79.8079 42.752C80.6959 42.752 81.1399 42.468 81.1399 41.9C81.1399 41.716 81.0359 41.576 80.8279 41.48C80.6279 41.384 80.2959 41.276 79.8319 41.156C79.3599 41.044 78.9679 40.928 78.6559 40.808C78.3519 40.688 78.0879 40.508 77.8639 40.268C77.6479 40.02 77.5399 39.696 77.5399 39.296C77.5399 38.736 77.7399 38.28 78.1399 37.928C78.5479 37.576 79.1279 37.4 79.8799 37.4C80.4959 37.4 81.0759 37.5 81.6199 37.7C81.7319 37.732 81.8159 37.792 81.8719 37.88C81.9359 37.968 81.9679 38.06 81.9679 38.156C81.9679 38.284 81.9199 38.396 81.8239 38.492C81.7359 38.588 81.6239 38.636 81.4879 38.636C81.4479 38.636 81.3959 38.628 81.3319 38.612C80.8679 38.468 80.4119 38.396 79.9639 38.396C79.5319 38.396 79.1919 38.476 78.9439 38.636C78.7039 38.788 78.5839 38.988 78.5839 39.236C78.5839 39.476 78.6959 39.652 78.9199 39.764C79.1439 39.876 79.4919 39.984 79.9639 40.088C80.4359 40.208 80.8199 40.328 81.1159 40.448C81.4119 40.56 81.6639 40.74 81.8719 40.988C82.0879 41.236 82.1959 41.568 82.1959 41.984C82.1959 42.496 81.9919 42.92 81.5839 43.256C81.1839 43.592 80.6159 43.76 79.8799 43.76Z" stroke="white" strokeWidth="4" mask="url(#path-1-inside-1_825_86)"/>
<path d="M84.1815 36.272C84.0135 36.272 83.8695 36.212 83.7495 36.092C83.6295 35.972 83.5695 35.828 83.5695 35.66V35.612C83.5695 35.444 83.6295 35.3 83.7495 35.18C83.8695 35.06 84.0135 35 84.1815 35H84.2535C84.4215 35 84.5655 35.06 84.6855 35.18C84.8055 35.3 84.8655 35.444 84.8655 35.612V35.66C84.8655 35.828 84.8055 35.972 84.6855 36.092C84.5655 36.212 84.4215 36.272 84.2535 36.272H84.1815ZM84.2055 43.7C84.0535 43.7 83.9255 43.648 83.8215 43.544C83.7175 43.44 83.6655 43.312 83.6655 43.16V38.012C83.6655 37.86 83.7175 37.732 83.8215 37.628C83.9255 37.516 84.0535 37.46 84.2055 37.46C84.3655 37.46 84.4975 37.512 84.6015 37.616C84.7055 37.72 84.7575 37.852 84.7575 38.012V43.16C84.7575 43.312 84.7015 43.44 84.5895 43.544C84.4855 43.648 84.3575 43.7 84.2055 43.7Z" stroke="white" strokeWidth="4" mask="url(#path-1-inside-1_825_86)"/>
<path d="M89.5098 46.52C89.0458 46.52 88.5778 46.46 88.1058 46.34C87.6338 46.22 87.2458 46.072 86.9418 45.896C86.7978 45.808 86.7258 45.668 86.7258 45.476C86.7258 45.348 86.7698 45.232 86.8578 45.128C86.9538 45.032 87.0698 44.984 87.2058 44.984C87.2698 44.984 87.3418 45 87.4218 45.032C88.0298 45.336 88.6898 45.488 89.4018 45.488C90.6258 45.488 91.2378 44.836 91.2378 43.532V42.728C90.6698 43.336 89.9858 43.64 89.1858 43.64C88.7138 43.64 88.2538 43.524 87.8058 43.292C87.3658 43.052 87.0018 42.7 86.7138 42.236C86.4258 41.764 86.2818 41.192 86.2818 40.52C86.2818 39.848 86.4258 39.28 86.7138 38.816C87.0018 38.344 87.3658 37.992 87.8058 37.76C88.2538 37.52 88.7138 37.4 89.1858 37.4C89.9858 37.4 90.6698 37.704 91.2378 38.312V38.012C91.2378 37.86 91.2898 37.732 91.3938 37.628C91.4978 37.516 91.6258 37.46 91.7778 37.46C91.9298 37.46 92.0578 37.516 92.1618 37.628C92.2738 37.732 92.3298 37.86 92.3298 38.012V43.376C92.3298 44.384 92.0858 45.16 91.5978 45.704C91.1098 46.248 90.4138 46.52 89.5098 46.52ZM89.4138 42.644C89.7898 42.644 90.1218 42.564 90.4098 42.404C90.6978 42.244 90.9738 42.028 91.2378 41.756V39.284C90.9738 39.012 90.6978 38.796 90.4098 38.636C90.1218 38.476 89.7898 38.396 89.4138 38.396C88.8138 38.396 88.3218 38.58 87.9378 38.948C87.5618 39.308 87.3738 39.832 87.3738 40.52C87.3738 41.208 87.5618 41.736 87.9378 42.104C88.3218 42.464 88.8138 42.644 89.4138 42.644Z" stroke="white" strokeWidth="4" mask="url(#path-1-inside-1_825_86)"/>
<path d="M94.7641 43.7C94.6121 43.7 94.4841 43.648 94.3801 43.544C94.2761 43.44 94.2241 43.312 94.2241 43.16V38.012C94.2241 37.86 94.2761 37.732 94.3801 37.628C94.4841 37.516 94.6121 37.46 94.7641 37.46C94.9161 37.46 95.0441 37.516 95.1481 37.628C95.2601 37.732 95.3161 37.86 95.3161 38.012V38.504C95.6201 38.168 95.9481 37.9 96.3001 37.7C96.6521 37.5 97.0681 37.4 97.5481 37.4C97.9881 37.4 98.3681 37.504 98.6881 37.712C99.0161 37.92 99.2641 38.204 99.4321 38.564C99.6081 38.924 99.6961 39.32 99.6961 39.752V43.16C99.6961 43.312 99.6401 43.44 99.5281 43.544C99.4241 43.648 99.2961 43.7 99.1441 43.7C98.9921 43.7 98.8641 43.648 98.7601 43.544C98.6561 43.44 98.6041 43.312 98.6041 43.16V39.872C98.6041 38.896 98.1641 38.408 97.2841 38.408C96.8841 38.408 96.5241 38.512 96.2041 38.72C95.8921 38.928 95.5961 39.208 95.3161 39.56V43.16C95.3161 43.312 95.2601 43.44 95.1481 43.544C95.0441 43.648 94.9161 43.7 94.7641 43.7Z" stroke="white" strokeWidth="4" mask="url(#path-1-inside-1_825_86)"/>
<path d="M102.077 43.7C101.925 43.7 101.797 43.648 101.693 43.544C101.589 43.44 101.537 43.312 101.537 43.16V38.012C101.537 37.86 101.589 37.732 101.693 37.628C101.797 37.516 101.925 37.46 102.077 37.46C102.229 37.46 102.357 37.516 102.461 37.628C102.573 37.732 102.629 37.86 102.629 38.012V38.504C102.853 38.184 103.121 37.92 103.433 37.712C103.753 37.504 104.165 37.4 104.669 37.4C105.117 37.4 105.501 37.52 105.821 37.76C106.141 38 106.369 38.292 106.505 38.636C107.001 37.812 107.737 37.4 108.713 37.4C109.161 37.4 109.533 37.512 109.829 37.736C110.133 37.96 110.357 38.248 110.501 38.6C110.645 38.952 110.717 39.32 110.717 39.704V43.16C110.717 43.312 110.661 43.44 110.549 43.544C110.445 43.648 110.317 43.7 110.165 43.7C110.013 43.7 109.885 43.648 109.781 43.544C109.677 43.44 109.625 43.312 109.625 43.16V39.92C109.625 39.4 109.533 39.02 109.349 38.78C109.165 38.532 108.849 38.408 108.401 38.408C107.993 38.408 107.653 38.516 107.381 38.732C107.117 38.94 106.881 39.216 106.673 39.56V43.16C106.673 43.312 106.617 43.44 106.505 43.544C106.401 43.648 106.273 43.7 106.121 43.7C105.969 43.7 105.841 43.648 105.737 43.544C105.633 43.44 105.581 43.312 105.581 43.16V39.92C105.581 39.4 105.489 39.02 105.305 38.78C105.121 38.532 104.805 38.408 104.357 38.408C103.949 38.408 103.609 38.516 103.337 38.732C103.073 38.94 102.837 39.216 102.629 39.56V43.16C102.629 43.312 102.573 43.44 102.461 43.544C102.357 43.648 102.229 43.7 102.077 43.7Z" stroke="white" strokeWidth="4" mask="url(#path-1-inside-1_825_86)"/>
<path d="M115.288 43.76C114.312 43.76 113.548 43.484 112.996 42.932C112.452 42.372 112.18 41.588 112.18 40.58C112.18 40.012 112.284 39.488 112.492 39.008C112.7 38.528 113.02 38.14 113.452 37.844C113.884 37.548 114.416 37.4 115.048 37.4C115.64 37.4 116.152 37.54 116.584 37.82C117.016 38.092 117.344 38.46 117.568 38.924C117.792 39.38 117.904 39.88 117.904 40.424C117.904 40.576 117.852 40.704 117.748 40.808C117.652 40.912 117.52 40.964 117.352 40.964H113.284C113.348 41.524 113.556 41.96 113.908 42.272C114.26 42.584 114.752 42.74 115.384 42.74C115.72 42.74 116.012 42.708 116.26 42.644C116.516 42.58 116.764 42.488 117.004 42.368C117.068 42.336 117.14 42.32 117.22 42.32C117.348 42.32 117.46 42.364 117.556 42.452C117.652 42.54 117.7 42.652 117.7 42.788C117.7 42.964 117.596 43.112 117.388 43.232C117.076 43.408 116.768 43.54 116.464 43.628C116.16 43.716 115.768 43.76 115.288 43.76ZM116.824 40.076C116.8 39.684 116.696 39.356 116.512 39.092C116.336 38.828 116.116 38.636 115.852 38.516C115.588 38.388 115.32 38.324 115.048 38.324C114.776 38.324 114.508 38.388 114.244 38.516C113.98 38.636 113.76 38.828 113.584 39.092C113.408 39.356 113.308 39.684 113.284 40.076H116.824Z" stroke="white" strokeWidth="4" mask="url(#path-1-inside-1_825_86)"/>
<path d="M119.889 43.7C119.737 43.7 119.609 43.648 119.505 43.544C119.401 43.44 119.349 43.312 119.349 43.16V38.012C119.349 37.86 119.401 37.732 119.505 37.628C119.609 37.516 119.737 37.46 119.889 37.46C120.041 37.46 120.169 37.516 120.273 37.628C120.385 37.732 120.441 37.86 120.441 38.012V38.504C120.745 38.168 121.073 37.9 121.425 37.7C121.777 37.5 122.193 37.4 122.673 37.4C123.113 37.4 123.493 37.504 123.813 37.712C124.141 37.92 124.389 38.204 124.557 38.564C124.733 38.924 124.821 39.32 124.821 39.752V43.16C124.821 43.312 124.765 43.44 124.653 43.544C124.549 43.648 124.421 43.7 124.269 43.7C124.117 43.7 123.989 43.648 123.885 43.544C123.781 43.44 123.729 43.312 123.729 43.16V39.872C123.729 38.896 123.289 38.408 122.409 38.408C122.009 38.408 121.649 38.512 121.329 38.72C121.017 38.928 120.721 39.208 120.441 39.56V43.16C120.441 43.312 120.385 43.44 120.273 43.544C120.169 43.648 120.041 43.7 119.889 43.7Z" stroke="white" strokeWidth="4" mask="url(#path-1-inside-1_825_86)"/>
<path d="M128.633 43.76C127.465 43.76 126.881 43.232 126.881 42.176V38.456H126.029C125.965 38.456 125.909 38.436 125.861 38.396C125.821 38.348 125.801 38.292 125.801 38.228C125.801 38.148 125.837 38.08 125.909 38.024L127.541 36.428C127.613 36.356 127.681 36.32 127.745 36.32C127.809 36.32 127.861 36.344 127.901 36.392C127.949 36.44 127.973 36.496 127.973 36.56V37.52H129.329C129.465 37.52 129.577 37.564 129.665 37.652C129.753 37.74 129.797 37.852 129.797 37.988C129.797 38.116 129.753 38.228 129.665 38.324C129.577 38.412 129.465 38.456 129.329 38.456H127.973V42.08C127.973 42.392 128.045 42.592 128.189 42.68C128.341 42.76 128.529 42.8 128.753 42.8C128.913 42.8 129.073 42.776 129.233 42.728C129.265 42.72 129.297 42.712 129.329 42.704C129.369 42.696 129.417 42.692 129.473 42.692C129.585 42.692 129.685 42.736 129.773 42.824C129.861 42.904 129.905 43.004 129.905 43.124C129.905 43.308 129.813 43.448 129.629 43.544C129.317 43.688 128.985 43.76 128.633 43.76Z" stroke="white" strokeWidth="4" mask="url(#path-1-inside-1_825_86)"/>
<path d="M132.063 43.7C131.951 43.7 131.851 43.66 131.763 43.58C131.683 43.5 131.643 43.4 131.643 43.28C131.643 43.248 131.739 42.64 131.931 41.456H131.007C130.895 41.456 130.795 41.416 130.707 41.336C130.627 41.248 130.587 41.148 130.587 41.036C130.587 40.924 130.627 40.828 130.707 40.748C130.795 40.66 130.895 40.616 131.007 40.616H132.063L132.351 38.792H131.427C131.315 38.792 131.215 38.752 131.127 38.672C131.047 38.584 131.007 38.484 131.007 38.372C131.007 38.26 131.047 38.164 131.127 38.084C131.215 37.996 131.315 37.952 131.427 37.952H132.483L132.783 36.056C132.799 35.96 132.843 35.88 132.915 35.816C132.995 35.752 133.091 35.72 133.203 35.72C133.331 35.72 133.431 35.76 133.503 35.84C133.583 35.92 133.623 36.02 133.623 36.14C133.623 36.196 133.527 36.8 133.335 37.952H134.859L135.159 36.056C135.175 35.96 135.219 35.88 135.291 35.816C135.371 35.752 135.467 35.72 135.579 35.72C135.707 35.72 135.807 35.76 135.879 35.84C135.959 35.92 135.999 36.02 135.999 36.14C135.999 36.196 135.903 36.8 135.711 37.952H136.635C136.747 37.952 136.843 37.996 136.923 38.084C137.011 38.164 137.055 38.26 137.055 38.372C137.055 38.484 137.011 38.584 136.923 38.672C136.843 38.752 136.747 38.792 136.635 38.792H135.579L135.291 40.616H136.215C136.327 40.616 136.423 40.66 136.503 40.748C136.591 40.828 136.635 40.924 136.635 41.036C136.635 41.148 136.591 41.248 136.503 41.336C136.423 41.416 136.327 41.456 136.215 41.456H135.159L134.859 43.352C134.843 43.448 134.795 43.532 134.715 43.604C134.635 43.668 134.543 43.7 134.439 43.7C134.327 43.7 134.227 43.66 134.139 43.58C134.059 43.5 134.019 43.4 134.019 43.28C134.019 43.248 134.115 42.64 134.307 41.456H132.783L132.483 43.352C132.467 43.448 132.419 43.532 132.339 43.604C132.259 43.668 132.167 43.7 132.063 43.7ZM132.915 40.616H134.439L134.727 38.792H133.203L132.915 40.616Z" stroke="white" strokeWidth="4" mask="url(#path-1-inside-1_825_86)"/>
<path d="M139.627 43.64C139.483 43.64 139.363 43.592 139.267 43.496C139.171 43.4 139.123 43.28 139.123 43.136C139.123 42.992 139.171 42.872 139.267 42.776C139.363 42.672 139.483 42.62 139.627 42.62H141.055V36.536L139.831 37.136C139.719 37.184 139.627 37.208 139.555 37.208C139.403 37.208 139.279 37.16 139.183 37.064C139.087 36.968 139.039 36.844 139.039 36.692C139.039 36.468 139.143 36.304 139.351 36.2L140.983 35.348C141.095 35.292 141.207 35.264 141.319 35.264H141.571C141.731 35.264 141.867 35.32 141.979 35.432C142.091 35.544 142.147 35.68 142.147 35.84V42.62H143.335C143.479 42.62 143.599 42.672 143.695 42.776C143.799 42.872 143.851 42.992 143.851 43.136C143.851 43.28 143.799 43.4 143.695 43.496C143.599 43.592 143.479 43.64 143.335 43.64H139.627Z" stroke="white" strokeWidth="4" mask="url(#path-1-inside-1_825_86)"/>
<path d="M148.806 43.76C147.75 43.76 146.942 43.372 146.382 42.596C145.83 41.82 145.554 40.772 145.554 39.452C145.554 38.132 145.83 37.084 146.382 36.308C146.942 35.532 147.75 35.144 148.806 35.144C149.854 35.144 150.658 35.532 151.218 36.308C151.778 37.084 152.058 38.132 152.058 39.452C152.058 40.772 151.778 41.82 151.218 42.596C150.658 43.372 149.854 43.76 148.806 43.76ZM148.806 42.752C149.502 42.752 150.034 42.46 150.402 41.876C150.778 41.292 150.966 40.484 150.966 39.452C150.966 38.428 150.778 37.624 150.402 37.04C150.034 36.456 149.502 36.164 148.806 36.164C148.11 36.164 147.574 36.456 147.198 37.04C146.83 37.624 146.646 38.428 146.646 39.452C146.646 40.484 146.83 41.292 147.198 41.876C147.574 42.46 148.11 42.752 148.806 42.752Z" stroke="white" strokeWidth="4" mask="url(#path-1-inside-1_825_86)"/>
<path d="M154.697 43.64C154.553 43.64 154.433 43.592 154.337 43.496C154.241 43.4 154.193 43.28 154.193 43.136C154.193 42.992 154.241 42.872 154.337 42.776C154.433 42.672 154.553 42.62 154.697 42.62H156.125V36.536L154.901 37.136C154.789 37.184 154.697 37.208 154.625 37.208C154.473 37.208 154.349 37.16 154.253 37.064C154.157 36.968 154.109 36.844 154.109 36.692C154.109 36.468 154.213 36.304 154.421 36.2L156.053 35.348C156.165 35.292 156.277 35.264 156.389 35.264H156.641C156.801 35.264 156.937 35.32 157.049 35.432C157.161 35.544 157.217 35.68 157.217 35.84V42.62H158.405C158.549 42.62 158.669 42.672 158.765 42.776C158.869 42.872 158.921 42.992 158.921 43.136C158.921 43.28 158.869 43.4 158.765 43.496C158.669 43.592 158.549 43.64 158.405 43.64H154.697Z" stroke="white" strokeWidth="4" mask="url(#path-1-inside-1_825_86)"/>
<path d="M55 40H45" stroke="white" stroke-linecap="round"/>
<path d="M179 40H169" stroke="white" stroke-linecap="round"/>
<mask id="path-4-inside-2_825_86" fill="white">
<path d="M47.0445 27.7742C46.469 27.7742 45.9844 27.5785 45.5906 27.1871C45.1969 26.7957 45 26.314 45 25.7419V6.36774C45 5.7957 45.1969 5.31398 45.5906 4.92258C45.9844 4.50107 46.469 4.29032 47.0445 4.29032C47.62 4.29032 48.1046 4.50107 48.4984 4.92258C48.9225 5.31398 49.1345 5.7957 49.1345 6.36774V8.21935C50.2855 6.95484 51.5273 5.94624 52.8601 5.19355C54.1928 4.44086 55.7678 4.06451 57.5852 4.06451C59.2511 4.06451 60.6898 4.45591 61.9014 5.23871C63.1432 6.02151 64.0822 7.09032 64.7183 8.44516C65.3846 9.8 65.7178 11.2903 65.7178 12.9161V25.7419C65.7178 26.314 65.5058 26.7957 65.0818 27.1871C64.688 27.5785 64.2034 27.7742 63.6279 27.7742C63.0524 27.7742 62.5678 27.5785 62.174 27.1871C61.7802 26.7957 61.5834 26.314 61.5834 25.7419V13.3677C61.5834 9.69462 59.9174 7.85806 56.5856 7.85806C55.0712 7.85806 53.7082 8.24946 52.4966 9.03226C51.3153 9.81505 50.1946 10.8688 49.1345 12.1935V25.7419C49.1345 26.314 48.9225 26.7957 48.4984 27.1871C48.1046 27.5785 47.62 27.7742 47.0445 27.7742Z"/>
<path d="M83.0452 28C79.3499 28 76.4573 26.9613 74.3673 24.8839C72.3076 22.7763 71.2778 19.8258 71.2778 16.0323C71.2778 13.8946 71.6716 11.9226 72.4591 10.1161C73.2466 8.30968 74.4582 6.84946 76.0938 5.73548C77.7294 4.6215 79.7436 4.06451 82.1365 4.06451C84.3779 4.06451 86.3164 4.5914 87.952 5.64516C89.5876 6.66882 90.8295 8.05376 91.6776 9.8C92.5257 11.5161 92.9497 13.3978 92.9497 15.4452C92.9497 16.0172 92.7529 16.4989 92.3591 16.8903C91.9956 17.2817 91.4959 17.4774 90.8598 17.4774H75.4577C75.7 19.5849 76.4875 21.2258 77.8203 22.4C79.153 23.5742 81.0158 24.1613 83.4086 24.1613C84.6808 24.1613 85.7863 24.0409 86.7253 23.8C87.6946 23.5591 88.6335 23.2129 89.5422 22.7613C89.7845 22.6409 90.0571 22.5806 90.36 22.5806C90.8446 22.5806 91.2687 22.7462 91.6322 23.0774C91.9956 23.4086 92.1774 23.8301 92.1774 24.3419C92.1774 25.0043 91.7836 25.5613 90.9961 26.0129C89.8148 26.6753 88.6487 27.172 87.4977 27.5032C86.3467 27.8344 84.8625 28 83.0452 28ZM88.8607 14.1355C88.7698 12.6602 88.3761 11.4258 87.6794 10.4323C87.013 9.43871 86.1801 8.71613 85.1805 8.26452C84.181 7.7828 83.1663 7.54194 82.1365 7.54194C81.1066 7.54194 80.092 7.7828 79.0924 8.26452C78.0929 8.71613 77.2599 9.43871 76.5936 10.4323C75.9272 11.4258 75.5486 12.6602 75.4577 14.1355H88.8607Z"/>
<path d="M109.143 28C106.962 28 104.948 27.5183 103.1 26.5548C101.252 25.5914 99.7681 24.2065 98.6474 22.4C97.557 20.5935 97.0118 18.471 97.0118 16.0323C97.0118 13.5935 97.557 11.471 98.6474 9.66452C99.7681 7.85806 101.252 6.47312 103.1 5.50968C104.948 4.54624 106.962 4.06451 109.143 4.06451C110.748 4.06451 112.126 4.27527 113.277 4.69677C114.458 5.08817 115.549 5.6 116.548 6.23226C117.154 6.62366 117.457 7.15054 117.457 7.8129C117.457 8.26452 117.275 8.68602 116.912 9.07742C116.579 9.43871 116.185 9.61936 115.731 9.61936C115.397 9.61936 115.064 9.52903 114.731 9.34839C113.731 8.83656 112.868 8.47527 112.141 8.26452C111.445 8.02366 110.566 7.90322 109.506 7.90322C106.901 7.90322 104.857 8.65591 103.373 10.1613C101.888 11.6366 101.146 13.5935 101.146 16.0323C101.146 18.471 101.888 20.443 103.373 21.9484C104.857 23.4237 106.901 24.1613 109.506 24.1613C110.566 24.1613 111.445 24.0559 112.141 23.8452C112.868 23.6043 113.731 23.228 114.731 22.7161C115.064 22.5355 115.397 22.4452 115.731 22.4452C116.185 22.4452 116.579 22.6409 116.912 23.0323C117.275 23.3935 117.457 23.8 117.457 24.2516C117.457 24.914 117.154 25.4409 116.548 25.8323C115.549 26.4645 114.458 26.9914 113.277 27.4129C112.126 27.8043 110.748 28 109.143 28Z"/>
<path d="M130.642 28C126.22 28 124.009 26.0129 124.009 22.0387V8.03871H120.783C120.541 8.03871 120.329 7.96344 120.147 7.8129C119.995 7.63226 119.92 7.42151 119.92 7.18064C119.92 6.87957 120.056 6.62366 120.329 6.4129L126.508 0.406452C126.78 0.135484 127.038 0 127.28 0C127.522 0 127.719 0.0903223 127.871 0.270967C128.052 0.451612 128.143 0.662364 128.143 0.903225V4.51613H133.277C133.792 4.51613 134.216 4.68172 134.549 5.0129C134.883 5.34409 135.049 5.76559 135.049 6.27742C135.049 6.75914 134.883 7.18065 134.549 7.54194C134.216 7.87312 133.792 8.03871 133.277 8.03871H128.143V21.6774C128.143 22.8516 128.416 23.6043 128.961 23.9355C129.537 24.2366 130.248 24.3871 131.096 24.3871C131.702 24.3871 132.308 24.2968 132.914 24.1161C133.035 24.086 133.156 24.0559 133.277 24.0258C133.429 23.9957 133.61 23.9806 133.822 23.9806C134.246 23.9806 134.625 24.1462 134.958 24.4774C135.291 24.7785 135.458 25.1548 135.458 25.6065C135.458 26.2989 135.11 26.8258 134.413 27.1871C133.232 27.729 131.975 28 130.642 28Z"/>
<path d="M145.9 28C144.568 28 143.326 27.729 142.175 27.1871C141.054 26.6452 140.161 25.8624 139.494 24.8387C138.828 23.7849 138.495 22.5806 138.495 21.2258C138.495 18.9978 139.373 17.2215 141.13 15.8968C142.917 14.572 145.522 13.9097 148.944 13.9097H154.442V13.5484C154.442 11.5613 153.942 10.1312 152.943 9.25806C151.973 8.38495 150.444 7.94839 148.354 7.94839C147.203 7.94839 146.173 8.03871 145.264 8.21935C144.386 8.4 143.402 8.67097 142.311 9.03226C142.069 9.09247 141.872 9.12258 141.72 9.12258C141.266 9.12258 140.872 8.95699 140.539 8.62581C140.206 8.29462 140.039 7.88817 140.039 7.40645C140.039 6.59355 140.433 6.02151 141.221 5.69032C143.795 4.60645 146.415 4.06451 149.081 4.06451C151.171 4.06451 152.927 4.48602 154.351 5.32903C155.805 6.17204 156.865 7.27097 157.531 8.62581C158.228 9.95054 158.576 11.3957 158.576 12.9613V25.7419C158.576 26.314 158.364 26.7957 157.94 27.1871C157.547 27.5785 157.062 27.7742 156.486 27.7742C155.911 27.7742 155.426 27.5785 155.033 27.1871C154.639 26.7957 154.442 26.314 154.442 25.7419V24.5677C152.201 26.8559 149.353 28 145.9 28ZM147.445 24.3871C148.778 24.3871 150.065 24.071 151.307 23.4387C152.549 22.7763 153.594 21.9634 154.442 21V17.2065H149.49C144.916 17.2065 142.629 18.3957 142.629 20.7742C142.629 21.8581 142.993 22.7312 143.72 23.3935C144.477 24.0559 145.719 24.3871 147.445 24.3871Z"/>
<path d="M167.551 27.7742C166.975 27.7742 166.491 27.5785 166.097 27.1871C165.703 26.7957 165.506 26.314 165.506 25.7419V6.36774C165.506 5.7957 165.703 5.31398 166.097 4.92258C166.491 4.50107 166.975 4.29032 167.551 4.29032C168.126 4.29032 168.611 4.50107 169.005 4.92258C169.429 5.31398 169.641 5.7957 169.641 6.36774V8.30968C171.761 5.47957 174.139 4.06451 176.774 4.06451H177.001C177.576 4.06451 178.046 4.26021 178.409 4.65161C178.803 5.04301 179 5.52473 179 6.09677C179 6.66882 178.803 7.13548 178.409 7.49677C178.016 7.85806 177.516 8.03871 176.91 8.03871H176.683C175.229 8.03871 173.896 8.4 172.685 9.12258C171.473 9.81505 170.458 10.7785 169.641 12.0129V25.7419C169.641 26.314 169.429 26.7957 169.005 27.1871C168.611 27.5785 168.126 27.7742 167.551 27.7742Z"/>
</mask>
<path d="M47.0445 27.7742C46.469 27.7742 45.9844 27.5785 45.5906 27.1871C45.1969 26.7957 45 26.314 45 25.7419V6.36774C45 5.7957 45.1969 5.31398 45.5906 4.92258C45.9844 4.50107 46.469 4.29032 47.0445 4.29032C47.62 4.29032 48.1046 4.50107 48.4984 4.92258C48.9225 5.31398 49.1345 5.7957 49.1345 6.36774V8.21935C50.2855 6.95484 51.5273 5.94624 52.8601 5.19355C54.1928 4.44086 55.7678 4.06451 57.5852 4.06451C59.2511 4.06451 60.6898 4.45591 61.9014 5.23871C63.1432 6.02151 64.0822 7.09032 64.7183 8.44516C65.3846 9.8 65.7178 11.2903 65.7178 12.9161V25.7419C65.7178 26.314 65.5058 26.7957 65.0818 27.1871C64.688 27.5785 64.2034 27.7742 63.6279 27.7742C63.0524 27.7742 62.5678 27.5785 62.174 27.1871C61.7802 26.7957 61.5834 26.314 61.5834 25.7419V13.3677C61.5834 9.69462 59.9174 7.85806 56.5856 7.85806C55.0712 7.85806 53.7082 8.24946 52.4966 9.03226C51.3153 9.81505 50.1946 10.8688 49.1345 12.1935V25.7419C49.1345 26.314 48.9225 26.7957 48.4984 27.1871C48.1046 27.5785 47.62 27.7742 47.0445 27.7742Z" fill="white"/>
<path d="M83.0452 28C79.3499 28 76.4573 26.9613 74.3673 24.8839C72.3076 22.7763 71.2778 19.8258 71.2778 16.0323C71.2778 13.8946 71.6716 11.9226 72.4591 10.1161C73.2466 8.30968 74.4582 6.84946 76.0938 5.73548C77.7294 4.6215 79.7436 4.06451 82.1365 4.06451C84.3779 4.06451 86.3164 4.5914 87.952 5.64516C89.5876 6.66882 90.8295 8.05376 91.6776 9.8C92.5257 11.5161 92.9497 13.3978 92.9497 15.4452C92.9497 16.0172 92.7529 16.4989 92.3591 16.8903C91.9956 17.2817 91.4959 17.4774 90.8598 17.4774H75.4577C75.7 19.5849 76.4875 21.2258 77.8203 22.4C79.153 23.5742 81.0158 24.1613 83.4086 24.1613C84.6808 24.1613 85.7863 24.0409 86.7253 23.8C87.6946 23.5591 88.6335 23.2129 89.5422 22.7613C89.7845 22.6409 90.0571 22.5806 90.36 22.5806C90.8446 22.5806 91.2687 22.7462 91.6322 23.0774C91.9956 23.4086 92.1774 23.8301 92.1774 24.3419C92.1774 25.0043 91.7836 25.5613 90.9961 26.0129C89.8148 26.6753 88.6487 27.172 87.4977 27.5032C86.3467 27.8344 84.8625 28 83.0452 28ZM88.8607 14.1355C88.7698 12.6602 88.3761 11.4258 87.6794 10.4323C87.013 9.43871 86.1801 8.71613 85.1805 8.26452C84.181 7.7828 83.1663 7.54194 82.1365 7.54194C81.1066 7.54194 80.092 7.7828 79.0924 8.26452C78.0929 8.71613 77.2599 9.43871 76.5936 10.4323C75.9272 11.4258 75.5486 12.6602 75.4577 14.1355H88.8607Z" fill="white"/>
<path d="M109.143 28C106.962 28 104.948 27.5183 103.1 26.5548C101.252 25.5914 99.7681 24.2065 98.6474 22.4C97.557 20.5935 97.0118 18.471 97.0118 16.0323C97.0118 13.5935 97.557 11.471 98.6474 9.66452C99.7681 7.85806 101.252 6.47312 103.1 5.50968C104.948 4.54624 106.962 4.06451 109.143 4.06451C110.748 4.06451 112.126 4.27527 113.277 4.69677C114.458 5.08817 115.549 5.6 116.548 6.23226C117.154 6.62366 117.457 7.15054 117.457 7.8129C117.457 8.26452 117.275 8.68602 116.912 9.07742C116.579 9.43871 116.185 9.61936 115.731 9.61936C115.397 9.61936 115.064 9.52903 114.731 9.34839C113.731 8.83656 112.868 8.47527 112.141 8.26452C111.445 8.02366 110.566 7.90322 109.506 7.90322C106.901 7.90322 104.857 8.65591 103.373 10.1613C101.888 11.6366 101.146 13.5935 101.146 16.0323C101.146 18.471 101.888 20.443 103.373 21.9484C104.857 23.4237 106.901 24.1613 109.506 24.1613C110.566 24.1613 111.445 24.0559 112.141 23.8452C112.868 23.6043 113.731 23.228 114.731 22.7161C115.064 22.5355 115.397 22.4452 115.731 22.4452C116.185 22.4452 116.579 22.6409 116.912 23.0323C117.275 23.3935 117.457 23.8 117.457 24.2516C117.457 24.914 117.154 25.4409 116.548 25.8323C115.549 26.4645 114.458 26.9914 113.277 27.4129C112.126 27.8043 110.748 28 109.143 28Z" fill="white"/>
<path d="M130.642 28C126.22 28 124.009 26.0129 124.009 22.0387V8.03871H120.783C120.541 8.03871 120.329 7.96344 120.147 7.8129C119.995 7.63226 119.92 7.42151 119.92 7.18064C119.92 6.87957 120.056 6.62366 120.329 6.4129L126.508 0.406452C126.78 0.135484 127.038 0 127.28 0C127.522 0 127.719 0.0903223 127.871 0.270967C128.052 0.451612 128.143 0.662364 128.143 0.903225V4.51613H133.277C133.792 4.51613 134.216 4.68172 134.549 5.0129C134.883 5.34409 135.049 5.76559 135.049 6.27742C135.049 6.75914 134.883 7.18065 134.549 7.54194C134.216 7.87312 133.792 8.03871 133.277 8.03871H128.143V21.6774C128.143 22.8516 128.416 23.6043 128.961 23.9355C129.537 24.2366 130.248 24.3871 131.096 24.3871C131.702 24.3871 132.308 24.2968 132.914 24.1161C133.035 24.086 133.156 24.0559 133.277 24.0258C133.429 23.9957 133.61 23.9806 133.822 23.9806C134.246 23.9806 134.625 24.1462 134.958 24.4774C135.291 24.7785 135.458 25.1548 135.458 25.6065C135.458 26.2989 135.11 26.8258 134.413 27.1871C133.232 27.729 131.975 28 130.642 28Z" fill="white"/>
<path d="M145.9 28C144.568 28 143.326 27.729 142.175 27.1871C141.054 26.6452 140.161 25.8624 139.494 24.8387C138.828 23.7849 138.495 22.5806 138.495 21.2258C138.495 18.9978 139.373 17.2215 141.13 15.8968C142.917 14.572 145.522 13.9097 148.944 13.9097H154.442V13.5484C154.442 11.5613 153.942 10.1312 152.943 9.25806C151.973 8.38495 150.444 7.94839 148.354 7.94839C147.203 7.94839 146.173 8.03871 145.264 8.21935C144.386 8.4 143.402 8.67097 142.311 9.03226C142.069 9.09247 141.872 9.12258 141.72 9.12258C141.266 9.12258 140.872 8.95699 140.539 8.62581C140.206 8.29462 140.039 7.88817 140.039 7.40645C140.039 6.59355 140.433 6.02151 141.221 5.69032C143.795 4.60645 146.415 4.06451 149.081 4.06451C151.171 4.06451 152.927 4.48602 154.351 5.32903C155.805 6.17204 156.865 7.27097 157.531 8.62581C158.228 9.95054 158.576 11.3957 158.576 12.9613V25.7419C158.576 26.314 158.364 26.7957 157.94 27.1871C157.547 27.5785 157.062 27.7742 156.486 27.7742C155.911 27.7742 155.426 27.5785 155.033 27.1871C154.639 26.7957 154.442 26.314 154.442 25.7419V24.5677C152.201 26.8559 149.353 28 145.9 28ZM147.445 24.3871C148.778 24.3871 150.065 24.071 151.307 23.4387C152.549 22.7763 153.594 21.9634 154.442 21V17.2065H149.49C144.916 17.2065 142.629 18.3957 142.629 20.7742C142.629 21.8581 142.993 22.7312 143.72 23.3935C144.477 24.0559 145.719 24.3871 147.445 24.3871Z" fill="white"/>
<path d="M167.551 27.7742C166.975 27.7742 166.491 27.5785 166.097 27.1871C165.703 26.7957 165.506 26.314 165.506 25.7419V6.36774C165.506 5.7957 165.703 5.31398 166.097 4.92258C166.491 4.50107 166.975 4.29032 167.551 4.29032C168.126 4.29032 168.611 4.50107 169.005 4.92258C169.429 5.31398 169.641 5.7957 169.641 6.36774V8.30968C171.761 5.47957 174.139 4.06451 176.774 4.06451H177.001C177.576 4.06451 178.046 4.26021 178.409 4.65161C178.803 5.04301 179 5.52473 179 6.09677C179 6.66882 178.803 7.13548 178.409 7.49677C178.016 7.85806 177.516 8.03871 176.91 8.03871H176.683C175.229 8.03871 173.896 8.4 172.685 9.12258C171.473 9.81505 170.458 10.7785 169.641 12.0129V25.7419C169.641 26.314 169.429 26.7957 169.005 27.1871C168.611 27.5785 168.126 27.7742 167.551 27.7742Z" fill="white"/>
<path d="M47.0445 27.7742C46.469 27.7742 45.9844 27.5785 45.5906 27.1871C45.1969 26.7957 45 26.314 45 25.7419V6.36774C45 5.7957 45.1969 5.31398 45.5906 4.92258C45.9844 4.50107 46.469 4.29032 47.0445 4.29032C47.62 4.29032 48.1046 4.50107 48.4984 4.92258C48.9225 5.31398 49.1345 5.7957 49.1345 6.36774V8.21935C50.2855 6.95484 51.5273 5.94624 52.8601 5.19355C54.1928 4.44086 55.7678 4.06451 57.5852 4.06451C59.2511 4.06451 60.6898 4.45591 61.9014 5.23871C63.1432 6.02151 64.0822 7.09032 64.7183 8.44516C65.3846 9.8 65.7178 11.2903 65.7178 12.9161V25.7419C65.7178 26.314 65.5058 26.7957 65.0818 27.1871C64.688 27.5785 64.2034 27.7742 63.6279 27.7742C63.0524 27.7742 62.5678 27.5785 62.174 27.1871C61.7802 26.7957 61.5834 26.314 61.5834 25.7419V13.3677C61.5834 9.69462 59.9174 7.85806 56.5856 7.85806C55.0712 7.85806 53.7082 8.24946 52.4966 9.03226C51.3153 9.81505 50.1946 10.8688 49.1345 12.1935V25.7419C49.1345 26.314 48.9225 26.7957 48.4984 27.1871C48.1046 27.5785 47.62 27.7742 47.0445 27.7742Z" stroke="white" strokeWidth="4" mask="url(#path-4-inside-2_825_86)"/>
<path d="M83.0452 28C79.3499 28 76.4573 26.9613 74.3673 24.8839C72.3076 22.7763 71.2778 19.8258 71.2778 16.0323C71.2778 13.8946 71.6716 11.9226 72.4591 10.1161C73.2466 8.30968 74.4582 6.84946 76.0938 5.73548C77.7294 4.6215 79.7436 4.06451 82.1365 4.06451C84.3779 4.06451 86.3164 4.5914 87.952 5.64516C89.5876 6.66882 90.8295 8.05376 91.6776 9.8C92.5257 11.5161 92.9497 13.3978 92.9497 15.4452C92.9497 16.0172 92.7529 16.4989 92.3591 16.8903C91.9956 17.2817 91.4959 17.4774 90.8598 17.4774H75.4577C75.7 19.5849 76.4875 21.2258 77.8203 22.4C79.153 23.5742 81.0158 24.1613 83.4086 24.1613C84.6808 24.1613 85.7863 24.0409 86.7253 23.8C87.6946 23.5591 88.6335 23.2129 89.5422 22.7613C89.7845 22.6409 90.0571 22.5806 90.36 22.5806C90.8446 22.5806 91.2687 22.7462 91.6322 23.0774C91.9956 23.4086 92.1774 23.8301 92.1774 24.3419C92.1774 25.0043 91.7836 25.5613 90.9961 26.0129C89.8148 26.6753 88.6487 27.172 87.4977 27.5032C86.3467 27.8344 84.8625 28 83.0452 28ZM88.8607 14.1355C88.7698 12.6602 88.3761 11.4258 87.6794 10.4323C87.013 9.43871 86.1801 8.71613 85.1805 8.26452C84.181 7.7828 83.1663 7.54194 82.1365 7.54194C81.1066 7.54194 80.092 7.7828 79.0924 8.26452C78.0929 8.71613 77.2599 9.43871 76.5936 10.4323C75.9272 11.4258 75.5486 12.6602 75.4577 14.1355H88.8607Z" stroke="white" strokeWidth="4" mask="url(#path-4-inside-2_825_86)"/>
<path d="M109.143 28C106.962 28 104.948 27.5183 103.1 26.5548C101.252 25.5914 99.7681 24.2065 98.6474 22.4C97.557 20.5935 97.0118 18.471 97.0118 16.0323C97.0118 13.5935 97.557 11.471 98.6474 9.66452C99.7681 7.85806 101.252 6.47312 103.1 5.50968C104.948 4.54624 106.962 4.06451 109.143 4.06451C110.748 4.06451 112.126 4.27527 113.277 4.69677C114.458 5.08817 115.549 5.6 116.548 6.23226C117.154 6.62366 117.457 7.15054 117.457 7.8129C117.457 8.26452 117.275 8.68602 116.912 9.07742C116.579 9.43871 116.185 9.61936 115.731 9.61936C115.397 9.61936 115.064 9.52903 114.731 9.34839C113.731 8.83656 112.868 8.47527 112.141 8.26452C111.445 8.02366 110.566 7.90322 109.506 7.90322C106.901 7.90322 104.857 8.65591 103.373 10.1613C101.888 11.6366 101.146 13.5935 101.146 16.0323C101.146 18.471 101.888 20.443 103.373 21.9484C104.857 23.4237 106.901 24.1613 109.506 24.1613C110.566 24.1613 111.445 24.0559 112.141 23.8452C112.868 23.6043 113.731 23.228 114.731 22.7161C115.064 22.5355 115.397 22.4452 115.731 22.4452C116.185 22.4452 116.579 22.6409 116.912 23.0323C117.275 23.3935 117.457 23.8 117.457 24.2516C117.457 24.914 117.154 25.4409 116.548 25.8323C115.549 26.4645 114.458 26.9914 113.277 27.4129C112.126 27.8043 110.748 28 109.143 28Z" stroke="white" strokeWidth="4" mask="url(#path-4-inside-2_825_86)"/>
<path d="M130.642 28C126.22 28 124.009 26.0129 124.009 22.0387V8.03871H120.783C120.541 8.03871 120.329 7.96344 120.147 7.8129C119.995 7.63226 119.92 7.42151 119.92 7.18064C119.92 6.87957 120.056 6.62366 120.329 6.4129L126.508 0.406452C126.78 0.135484 127.038 0 127.28 0C127.522 0 127.719 0.0903223 127.871 0.270967C128.052 0.451612 128.143 0.662364 128.143 0.903225V4.51613H133.277C133.792 4.51613 134.216 4.68172 134.549 5.0129C134.883 5.34409 135.049 5.76559 135.049 6.27742C135.049 6.75914 134.883 7.18065 134.549 7.54194C134.216 7.87312 133.792 8.03871 133.277 8.03871H128.143V21.6774C128.143 22.8516 128.416 23.6043 128.961 23.9355C129.537 24.2366 130.248 24.3871 131.096 24.3871C131.702 24.3871 132.308 24.2968 132.914 24.1161C133.035 24.086 133.156 24.0559 133.277 24.0258C133.429 23.9957 133.61 23.9806 133.822 23.9806C134.246 23.9806 134.625 24.1462 134.958 24.4774C135.291 24.7785 135.458 25.1548 135.458 25.6065C135.458 26.2989 135.11 26.8258 134.413 27.1871C133.232 27.729 131.975 28 130.642 28Z" stroke="white" strokeWidth="4" mask="url(#path-4-inside-2_825_86)"/>
<path d="M145.9 28C144.568 28 143.326 27.729 142.175 27.1871C141.054 26.6452 140.161 25.8624 139.494 24.8387C138.828 23.7849 138.495 22.5806 138.495 21.2258C138.495 18.9978 139.373 17.2215 141.13 15.8968C142.917 14.572 145.522 13.9097 148.944 13.9097H154.442V13.5484C154.442 11.5613 153.942 10.1312 152.943 9.25806C151.973 8.38495 150.444 7.94839 148.354 7.94839C147.203 7.94839 146.173 8.03871 145.264 8.21935C144.386 8.4 143.402 8.67097 142.311 9.03226C142.069 9.09247 141.872 9.12258 141.72 9.12258C141.266 9.12258 140.872 8.95699 140.539 8.62581C140.206 8.29462 140.039 7.88817 140.039 7.40645C140.039 6.59355 140.433 6.02151 141.221 5.69032C143.795 4.60645 146.415 4.06451 149.081 4.06451C151.171 4.06451 152.927 4.48602 154.351 5.32903C155.805 6.17204 156.865 7.27097 157.531 8.62581C158.228 9.95054 158.576 11.3957 158.576 12.9613V25.7419C158.576 26.314 158.364 26.7957 157.94 27.1871C157.547 27.5785 157.062 27.7742 156.486 27.7742C155.911 27.7742 155.426 27.5785 155.033 27.1871C154.639 26.7957 154.442 26.314 154.442 25.7419V24.5677C152.201 26.8559 149.353 28 145.9 28ZM147.445 24.3871C148.778 24.3871 150.065 24.071 151.307 23.4387C152.549 22.7763 153.594 21.9634 154.442 21V17.2065H149.49C144.916 17.2065 142.629 18.3957 142.629 20.7742C142.629 21.8581 142.993 22.7312 143.72 23.3935C144.477 24.0559 145.719 24.3871 147.445 24.3871Z" stroke="white" strokeWidth="4" mask="url(#path-4-inside-2_825_86)"/>
<path d="M167.551 27.7742C166.975 27.7742 166.491 27.5785 166.097 27.1871C165.703 26.7957 165.506 26.314 165.506 25.7419V6.36774C165.506 5.7957 165.703 5.31398 166.097 4.92258C166.491 4.50107 166.975 4.29032 167.551 4.29032C168.126 4.29032 168.611 4.50107 169.005 4.92258C169.429 5.31398 169.641 5.7957 169.641 6.36774V8.30968C171.761 5.47957 174.139 4.06451 176.774 4.06451H177.001C177.576 4.06451 178.046 4.26021 178.409 4.65161C178.803 5.04301 179 5.52473 179 6.09677C179 6.66882 178.803 7.13548 178.409 7.49677C178.016 7.85806 177.516 8.03871 176.91 8.03871H176.683C175.229 8.03871 173.896 8.4 172.685 9.12258C171.473 9.81505 170.458 10.7785 169.641 12.0129V25.7419C169.641 26.314 169.429 26.7957 169.005 27.1871C168.611 27.5785 168.126 27.7742 167.551 27.7742Z" stroke="white" strokeWidth="4" mask="url(#path-4-inside-2_825_86)"/>
<path d="M22.6552 25.9448C21.8948 27.2632 20.7753 28.3413 19.4256 29.0549C18.0759 29.7686 16.5508 30.0888 15.026 29.9787L22.349 17.3601C23.2058 18.6181 23.689 20.0905 23.7431 21.6087C23.7973 23.127 23.4203 24.6297 22.6552 25.9448Z" fill="url(#paint0_linear_825_86)"/>
<path d="M22.349 17.3602L15.026 29.9715C14.1705 28.7134 13.6882 27.2416 13.634 25.7241C13.5799 24.2066 13.9561 22.7045 14.7198 21.3894C15.4834 20.0742 16.6037 18.9991 17.9528 18.2866C19.3018 17.5742 20.8252 17.2532 22.349 17.3602Z" fill="url(#paint1_linear_825_86)"/>
<path d="M22.349 17.3602L15.026 29.9715C14.1705 28.7134 13.6882 27.2416 13.634 25.7241C13.5799 24.2066 13.9561 22.7045 14.7198 21.3894C15.4834 20.0742 16.6037 18.9991 17.9528 18.2866C19.3018 17.5742 20.8252 17.2532 22.349 17.3602Z" fill="url(#paint2_linear_825_86)"/>
<path d="M21.2349 19.4654C20.5947 19.8332 19.8879 20.072 19.1548 20.1682C18.4218 20.2644 17.6768 20.2161 16.9625 20.0261C16.2483 19.8361 15.5786 19.5081 14.9919 19.0608C14.4052 18.6135 13.9128 18.0556 13.543 17.4192L11.4365 13.7851C11.1847 13.3529 10.9924 12.8892 10.8646 12.4062L0 10.965L10.7281 9.54586C10.776 9.54223 10.8241 9.54223 10.872 9.54586C11.1562 8.47129 11.756 7.50524 12.5949 6.77092C13.4338 6.0366 14.4737 5.56732 15.582 5.42292C16.6903 5.27852 17.8167 5.46556 18.8176 5.96018C19.8185 6.45479 20.6485 7.23457 21.2017 8.20003L23.3119 11.8341C23.6799 12.4707 23.918 13.1731 24.0127 13.9012C24.1074 14.6293 24.0569 15.3688 23.864 16.0775C23.6711 16.7862 23.3397 17.4502 22.8886 18.0315C22.4375 18.6128 21.8755 19.1 21.2349 19.4654Z" fill="url(#paint3_linear_825_86)"/>
<path d="M31.727 15.5668C30.5242 17.6379 28.7597 19.3311 26.635 20.4529C24.5103 21.5747 22.1111 22.08 19.7113 21.911L31.2548 2.03149C32.6058 4.01526 33.3667 6.33748 33.4502 8.73162C33.5338 11.1258 32.9365 13.4948 31.727 15.5668Z" fill="url(#paint4_linear_825_86)"/>
<path d="M31.2547 2.03163L19.7186 21.8928C18.3721 19.9111 17.6133 17.593 17.5286 15.2032C17.4439 12.8133 18.0368 10.448 19.2397 8.37702C20.4426 6.30608 22.207 4.613 24.3314 3.49101C26.4559 2.36902 28.8549 1.86333 31.2547 2.03163Z" fill="url(#paint5_linear_825_86)"/>
<path d="M31.2547 2.03163L19.7186 21.8928C18.3721 19.9111 17.6133 17.593 17.5286 15.2032C17.4439 12.8133 18.0368 10.448 19.2397 8.37702C20.4426 6.30608 22.207 4.613 24.3314 3.49101C26.4559 2.36902 28.8549 1.86333 31.2547 2.03163Z" fill="url(#paint6_linear_825_86)"/>
<defs>
<linearGradient id="paint0_linear_825_86" x1="15.026" y1="23.6786" x2="23.7472" y2="23.6786" gradientUnits="userSpaceOnUse">
<stop stop-color="#FDE05C"/>
<stop offset="1" stop-color="#D7263D"/>
</linearGradient>
<linearGradient id="paint1_linear_825_86" x1="13.6278" y1="23.6567" x2="22.349" y2="23.6567" gradientUnits="userSpaceOnUse">
<stop stop-color="#FDE05C"/>
<stop offset="1" stop-color="#D7263D"/>
</linearGradient>
<linearGradient id="paint2_linear_825_86" x1="13.6278" y1="23.6567" x2="22.349" y2="23.6567" gradientUnits="userSpaceOnUse">
<stop stop-color="#FDE05C"/>
<stop offset="1" stop-color="#D7263D"/>
</linearGradient>
<linearGradient id="paint3_linear_825_86" x1="0" y1="12.8023" x2="24.0498" y2="12.8023" gradientUnits="userSpaceOnUse">
<stop stop-color="#FDE05C"/>
<stop offset="1" stop-color="#D7263D"/>
</linearGradient>
<linearGradient id="paint4_linear_825_86" x1="19.7187" y1="11.9767" x2="33.4572" y2="11.9767" gradientUnits="userSpaceOnUse">
<stop stop-color="#13A9FF"/>
<stop offset="1" stop-color="#3800E9"/>
</linearGradient>
<linearGradient id="paint5_linear_825_86" x1="17.5199" y1="11.9439" x2="31.2547" y2="11.9439" gradientUnits="userSpaceOnUse">
<stop stop-color="#13A9FF"/>
<stop offset="1" stop-color="#3800E9"/>
</linearGradient>
<linearGradient id="paint6_linear_825_86" x1="17.5199" y1="11.9439" x2="31.2547" y2="11.9439" gradientUnits="userSpaceOnUse">
<stop stop-color="#13A9FF"/>
<stop offset="1" stop-color="#3800E9"/>
</linearGradient>
</defs>
</svg>
